<svg xmlns="http://www.w3.org/2000/svg" width="500" height="500"><rect x="0" y="0" width="50" height="50" fill="#ff0000" /><rect x="50" y="0" width="50" height="50" fill="#ff0088" /><rect x="100" y="0" width="50" height="50" fill="#ee00ff" /><rect x="150" y="0" width="50" height="50" fill="#8c00ff" /><rect x="200" y="0" width="50" height="50" fill="#3300ff" /><rect x="250" y="0" width="50" height="50" fill="#001eff" /><rect x="300" y="0" width="50" height="50" fill="#0084ff" /><rect x="350" y="0" width="50" height="50" fill="#00fbff" /><rect x="400" y="0" width="50" height="50" fill="#00ffbf" /><rect x="450" y="0" width="50" height="50" fill="#00ff55" /><rect x="0" y="50" width="50" height="50" fill="#ff0088" /><rect x="50" y="50" width="50" height="50" fill="#ee00ff" /><rect x="100" y="50" width="50" height="50" fill="#8c00ff" /><rect x="150" y="50" width="50" height="50" fill="#3300ff" /><rect x="200" y="50" width="50" height="50" fill="#001eff" /><rect x="250" y="50" width="50" height="50" fill="#0084ff" /><rect x="300" y="50" width="50" height="50" fill="#00fbff" /><rect x="350" y="50" width="50" height="50" fill="#00ffbf" /><rect x="400" y="50" width="50" height="50" fill="#00ff55" /><rect x="450" y="50" width="50" height="50" fill="#73ff00" /><rect x="0" y="100" width="50" height="50" fill="#ee00ff" /><rect x="50" y="100" width="50" height="50" fill="#8c00ff" /><rect x="100" y="100" width="50" height="50" fill="#3300ff" /><rect x="150" y="100" width="50" height="50" fill="#001eff" /><rect x="200" y="100" width="50" height="50" fill="#0084ff" /><rect x="250" y="100" width="50" height="50" fill="#00fbff" /><rect x="300" y="100" width="50" height="50" fill="#00ffbf" /><rect x="350" y="100" width="50" height="50" fill="#00ff55" /><rect x="400" y="100" width="50" height="50" fill="#73ff00" /><rect x="450" y="100" width="50" height="50" fill="#d4ff00" /><rect x="0" y="150" width="50" height="50" fill="#8c00ff" /><rect x="50" y="150" width="50" height="50" fill="#3300ff" /><rect x="100" y="150" width="50" height="50" fill="#001eff" /><rect x="150" y="150" width="50" height="50" fill="#0084ff" /><rect x="200" y="150" width="50" height="50" fill="#00fbff" /><rect x="250" y="150" width="50" height="50" fill="#00ffbf" /><rect x="300" y="150" width="50" height="50" fill="#00ff55" /><rect x="350" y="150" width="50" height="50" fill="#73ff00" /><rect x="400" y="150" width="50" height="50" fill="#d4ff00" /><rect x="450" y="150" width="50" height="50" fill="#ffea00" /><rect x="0" y="200" width="50" height="50" fill="#3300ff" /><rect x="50" y="200" width="50" height="50" fill="#001eff" /><rect x="100" y="200" width="50" height="50" fill="#0084ff" /><rect x="150" y="200" width="50" height="50" fill="#00fbff" /><rect x="200" y="200" width="50" height="50" fill="#00ffbf" /><rect x="250" y="200" width="50" height="50" fill="#00ff55" /><rect x="300" y="200" width="50" height="50" fill="#73ff00" /><rect x="350" y="200" width="50" height="50" fill="#d4ff00" /><rect x="400" y="200" width="50" height="50" fill="#ffea00" /><rect x="450" y="200" width="50" height="50" fill="#ff8800" /><rect x="0" y="250" width="50" height="50" fill="#001eff" /><rect x="50" y="250" width="50" height="50" fill="#0084ff" /><rect x="100" y="250" width="50" height="50" fill="#00fbff" /><rect x="150" y="250" width="50" height="50" fill="#00ffbf" /><rect x="200" y="250" width="50" height="50" fill="#00ff55" /><rect x="250" y="250" width="50" height="50" fill="#73ff00" /><rect x="300" y="250" width="50" height="50" fill="#d4ff00" /><rect x="350" y="250" width="50" height="50" fill="#ffea00" /><rect x="400" y="250" width="50" height="50" fill="#ff8800" /><rect x="450" y="250" width="50" height="50" fill="#ff4000" /><rect x="0" y="300" width="50" height="50" fill="#0084ff" /><rect x="50" y="300" width="50" height="50" fill="#00fbff" /><rect x="100" y="300" width="50" height="50" fill="#00ffbf" /><rect x="150" y="300" width="50" height="50" fill="#00ff55" /><rect x="200" y="300" width="50" height="50" fill="#73ff00" /><rect x="250" y="300" width="50" height="50" fill="#d4ff00" /><rect x="300" y="300" width="50" height="50" fill="#ffea00" /><rect x="350" y="300" width="50" height="50" fill="#ff8800" /><rect x="400" y="300" width="50" height="50" fill="#ff4000" /><rect x="450" y="300" width="50" height="50" fill="#ff1900" /><rect x="0" y="350" width="50" height="50" fill="#00fbff" /><rect x="50" y="350" width="50" height="50" fill="#00ffbf" /><rect x="100" y="350" width="50" height="50" fill="#00ff55" /><rect x="150" y="350" width="50" height="50" fill="#73ff00" /><rect x="200" y="350" width="50" height="50" fill="#d4ff00" /><rect x="250" y="350" width="50" height="50" fill="#ffea00" /><rect x="300" y="350" width="50" height="50" fill="#ff8800" /><rect x="350" y="350" width="50" height="50" fill="#ff4000" /><rect x="400" y="350" width="50" height="50" fill="#ff1900" /><rect x="450" y="350" width="50" height="50" fill="#ff006f" /><rect x="0" y="400" width="50" height="50" fill="#00ffbf" /><rect x="50" y="400" width="50" height="50" fill="#00ff55" /><rect x="100" y="400" width="50" height="50" fill="#73ff00" /><rect x="150" y="400" width="50" height="50" fill="#d4ff00" /><rect x="200" y="400" width="50" height="50" fill="#ffea00" /><rect x="250" y="400" width="50" height="50" fill="#ff8800" /><rect x="300" y="400" width="50" height="50" fill="#ff4000" /><rect x="350" y="400" width="50" height="50" fill="#ff1900" /><rect x="400" y="400" width="50" height="50" fill="#ff006f" /><rect x="450" y="400" width="50" height="50" fill="#ff00c8" /><rect x="0" y="450" width="50" height="50" fill="#00ff55" /><rect x="50" y="450" width="50" height="50" fill="#73ff00" /><rect x="100" y="450" width="50" height="50" fill="#d4ff00" /><rect x="150" y="450" width="50" height="50" fill="#ffea00" /><rect x="200" y="450" width="50" height="50" fill="#ff8800" /><rect x="250" y="450" width="50" height="50" fill="#ff4000" /><rect x="300" y="450" width="50" height="50" fill="#ff1900" /><rect x="350" y="450" width="50" height="50" fill="#ff006f" /><rect x="400" y="450" width="50" height="50" fill="#ff00c8" /><rect x="450" y="450" width="50" height="50" fill="#e100ff" /></svg>