<svg xmlns="http://www.w3.org/2000/svg" width="500" height="500"><rect x="250" y="0" width="41.666666666666664" height="41.666666666666664" fill="#000000" /><rect x="291.66666666666663" y="0" width="41.666666666666664" height="41.666666666666664" fill="#000000" /><rect x="208.33333333333331" y="41.666666666666664" width="41.666666666666664" height="41.666666666666664" fill="#000000" /><rect x="250" y="41.666666666666664" width="41.666666666666664" height="41.666666666666664" fill="#000000" /><rect x="291.66666666666663" y="41.666666666666664" width="41.666666666666664" height="41.666666666666664" fill="#000000" /><rect x="333.3333333333333" y="41.666666666666664" width="41.666666666666664" height="41.666666666666664" fill="#000000" /><rect x="166.66666666666666" y="83.33333333333333" width="41.666666666666664" height="41.666666666666664" fill="#000000" /><rect x="208.33333333333331" y="83.33333333333333" width="41.666666666666664" height="41.666666666666664" fill="#000000" /><rect x="250" y="83.33333333333333" width="41.666666666666664" height="41.666666666666664" fill="#000000" /><rect x="291.66666666666663" y="83.33333333333333" width="41.666666666666664" height="41.666666666666664" fill="#000000" /><rect x="333.3333333333333" y="83.33333333333333" width="41.666666666666664" height="41.666666666666664" fill="#000000" /><rect x="375" y="83.33333333333333" width="41.666666666666664" height="41.666666666666664" fill="#000000" /><rect x="125" y="125" width="41.666666666666664" height="41.666666666666664" fill="#000000" /><rect x="166.66666666666666" y="125" width="41.666666666666664" height="41.666666666666664" fill="#000000" /><rect x="208.33333333333331" y="125" width="41.666666666666664" height="41.666666666666664" fill="#000000" /><rect x="250" y="125" width="41.666666666666664" height="41.666666666666664" fill="#000000" /><rect x="291.66666666666663" y="125" width="41.666666666666664" height="41.666666666666664" fill="#000000" /><rect x="333.3333333333333" y="125" width="41.666666666666664" height="41.666666666666664" fill="#000000" /><rect x="375" y="125" width="41.666666666666664" height="41.666666666666664" fill="#000000" /><rect x="416.66666666666663" y="125" width="41.666666666666664" height="41.666666666666664" fill="#000000" /><rect x="83.33333333333333" y="166.66666666666666" width="41.666666666666664" height="41.666666666666664" fill="#000000" /><rect x="125" y="166.66666666666666" width="41.666666666666664" height="41.666666666666664" fill="#000000" /><rect x="166.66666666666666" y="166.66666666666666" width="41.666666666666664" height="41.666666666666664" fill="#000000" /><rect x="208.33333333333331" y="166.66666666666666" width="41.666666666666664" height="41.666666666666664" fill="#000000" /><rect x="250" y="166.66666666666666" width="41.666666666666664" height="41.666666666666664" fill="#000000" /><rect x="291.66666666666663" y="166.66666666666666" width="41.666666666666664" height="41.666666666666664" fill="#000000" /><rect x="333.3333333333333" y="166.66666666666666" width="41.666666666666664" height="41.666666666666664" fill="#000000" /><rect x="375" y="166.66666666666666" width="41.666666666666664" height="41.666666666666664" fill="#000000" /><rect x="416.66666666666663" y="166.66666666666666" width="41.666666666666664" height="41.666666666666664" fill="#000000" /><rect x="458.3333333333333" y="166.66666666666666" width="41.666666666666664" height="41.666666666666664" fill="#000000" /><rect x="41.666666666666664" y="208.33333333333331" width="41.666666666666664" height="41.666666666666664" fill="#000000" /><rect x="125" y="208.33333333333331" width="41.666666666666664" height="41.666666666666664" fill="#000000" /><rect x="166.66666666666666" y="208.33333333333331" width="41.666666666666664" height="41.666666666666664" fill="#000000" /><rect x="208.33333333333331" y="208.33333333333331" width="41.666666666666664" height="41.666666666666664" fill="#000000" /><rect x="250" y="208.33333333333331" width="41.666666666666664" height="41.666666666666664" fill="#000000" /><rect x="291.66666666666663" y="208.33333333333331" width="41.666666666666664" height="41.666666666666664" fill="#000000" /><rect x="333.3333333333333" y="208.33333333333331" width="41.666666666666664" height="41.666666666666664" fill="#000000" /><rect x="375" y="208.33333333333331" width="41.666666666666664" height="41.666666666666664" fill="#000000" /><rect x="416.66666666666663" y="208.33333333333331" width="41.666666666666664" height="41.666666666666664" fill="#000000" /><rect x="458.3333333333333" y="208.33333333333331" width="41.666666666666664" height="41.666666666666664" fill="#000000" /><rect x="0" y="250" width="41.666666666666664" height="41.666666666666664" fill="#000000" /><rect x="166.66666666666666" y="250" width="41.666666666666664" height="41.666666666666664" fill="#000000" /><rect x="208.33333333333331" y="250" width="41.666666666666664" height="41.666666666666664" fill="#000000" /><rect x="250" y="250" width="41.666666666666664" height="41.666666666666664" fill="#000000" /><rect x="291.66666666666663" y="250" width="41.666666666666664" height="41.666666666666664" fill="#000000" /><rect x="333.3333333333333" y="250" width="41.666666666666664" height="41.666666666666664" fill="#000000" /><rect x="375" y="250" width="41.666666666666664" height="41.666666666666664" fill="#000000" /><rect x="416.66666666666663" y="250" width="41.666666666666664" height="41.666666666666664" fill="#000000" /><rect x="0" y="291.66666666666663" width="41.666666666666664" height="41.666666666666664" fill="#000000" /><rect x="208.33333333333331" y="291.66666666666663" width="41.666666666666664" height="41.666666666666664" fill="#000000" /><rect x="250" y="291.66666666666663" width="41.666666666666664" height="41.666666666666664" fill="#000000" /><rect x="291.66666666666663" y="291.66666666666663" width="41.666666666666664" height="41.666666666666664" fill="#000000" /><rect x="333.3333333333333" y="291.66666666666663" width="41.666666666666664" height="41.666666666666664" fill="#000000" /><rect x="375" y="291.66666666666663" width="41.666666666666664" height="41.666666666666664" fill="#000000" /><rect x="41.666666666666664" y="333.3333333333333" width="41.666666666666664" height="41.666666666666664" fill="#000000" /><rect x="250" y="333.3333333333333" width="41.666666666666664" height="41.666666666666664" fill="#000000" /><rect x="291.66666666666663" y="333.3333333333333" width="41.666666666666664" height="41.666666666666664" fill="#000000" /><rect x="333.3333333333333" y="333.3333333333333" width="41.666666666666664" height="41.666666666666664" fill="#000000" /><rect x="83.33333333333333" y="375" width="41.666666666666664" height="41.666666666666664" fill="#000000" /><rect x="291.66666666666663" y="375" width="41.666666666666664" height="41.666666666666664" fill="#000000" /><rect x="125" y="416.66666666666663" width="41.666666666666664" height="41.666666666666664" fill="#000000" /><rect x="250" y="416.66666666666663" width="41.666666666666664" height="41.666666666666664" fill="#000000" /><rect x="166.66666666666666" y="458.3333333333333" width="41.666666666666664" height="41.666666666666664" fill="#000000" /><rect x="208.33333333333331" y="458.3333333333333" width="41.666666666666664" height="41.666666666666664" fill="#000000" /></svg>