<svg xmlns="http://www.w3.org/2000/svg" width="500" height="500"><rect x="200" y="0" width="50" height="50" fill="#000000" /><rect x="250" y="0" width="50" height="50" fill="#000000" /><rect x="200" y="50" width="50" height="50" fill="#000000" /><rect x="250" y="50" width="50" height="50" fill="#000000" /><rect x="300" y="50" width="50" height="50" fill="#000000" /><rect x="250" y="100" width="50" height="50" fill="#000000" /><rect x="300" y="100" width="50" height="50" fill="#000000" /><rect x="350" y="100" width="50" height="50" fill="#000000" /><rect x="300" y="150" width="50" height="50" fill="#000000" /><rect x="350" y="150" width="50" height="50" fill="#000000" /><rect x="400" y="150" width="50" height="50" fill="#000000" /><rect x="0" y="200" width="50" height="50" fill="#000000" /><rect x="50" y="200" width="50" height="50" fill="#000000" /><rect x="100" y="200" width="50" height="50" fill="#000000" /><rect x="150" y="200" width="50" height="50" fill="#000000" /><rect x="200" y="200" width="50" height="50" fill="#000000" /><rect x="250" y="200" width="50" height="50" fill="#000000" /><rect x="300" y="200" width="50" height="50" fill="#000000" /><rect x="350" y="200" width="50" height="50" fill="#000000" /><rect x="400" y="200" width="50" height="50" fill="#000000" /><rect x="450" y="200" width="50" height="50" fill="#000000" /><rect x="0" y="250" width="50" height="50" fill="#000000" /><rect x="50" y="250" width="50" height="50" fill="#000000" /><rect x="100" y="250" width="50" height="50" fill="#000000" /><rect x="150" y="250" width="50" height="50" fill="#000000" /><rect x="200" y="250" width="50" height="50" fill="#000000" /><rect x="250" y="250" width="50" height="50" fill="#000000" /><rect x="300" y="250" width="50" height="50" fill="#000000" /><rect x="350" y="250" width="50" height="50" fill="#000000" /><rect x="400" y="250" width="50" height="50" fill="#000000" /><rect x="450" y="250" width="50" height="50" fill="#000000" /><rect x="300" y="300" width="50" height="50" fill="#000000" /><rect x="350" y="300" width="50" height="50" fill="#000000" /><rect x="400" y="300" width="50" height="50" fill="#000000" /><rect x="250" y="350" width="50" height="50" fill="#000000" /><rect x="300" y="350" width="50" height="50" fill="#000000" /><rect x="350" y="350" width="50" height="50" fill="#000000" /><rect x="200" y="400" width="50" height="50" fill="#000000" /><rect x="250" y="400" width="50" height="50" fill="#000000" /><rect x="300" y="400" width="50" height="50" fill="#000000" /><rect x="200" y="450" width="50" height="50" fill="#000000" /><rect x="250" y="450" width="50" height="50" fill="#000000" /></svg>